PathFileType	4	(X/Y/Z)	/Users/itak/Documents/Research/Walk-IL/dataset/trc/00046_00004.trc
DataRate	CameraRate	NumFrames	NumMarkers	Units	OrigDataRate	OrigDataStartFrame	OrigNumFrames
100.000000	100.000000	4	53	mm	100.000000	60	482
Frame#	Time	RPSI			LPSI			L3			STRN			T10			C7			CLAV			RBAK			LBAK			LSHO			LUPA			LAEL			LAOL			LWTS			LWPS			LFRA			LIFD			LHPS			LHTS			RSHO			RUPA			RAEL			RAOL			RWTS			RWPS			RFRA			RIFD			RHTS			RHPS			RBHD			LFHD			RFHD			LBHD			LHIP			RASI			LASI			LKNE			LTHI			LANK			LTIP			LTOE			LMT1			LMT5			LHEE			RKNE			RTHI			RANK			RTIP			RTOE			RMT1			RMT5			RHEE			RHIP			
		X1	Y1	Z1	X2	Y2	Z2	X3	Y3	Z3	X4	Y4	Z4	X5	Y5	Z5	X6	Y6	Z6	X7	Y7	Z7	X8	Y8	Z8	X9	Y9	Z9	X10	Y10	Z10	X11	Y11	Z11	X12	Y12	Z12	X13	Y13	Z13	X14	Y14	Z14	X15	Y15	Z15	X16	Y16	Z16	X17	Y17	Z17	X18	Y18	Z18	X19	Y19	Z19	X20	Y20	Z20	X21	Y21	Z21	X22	Y22	Z22	X23	Y23	Z23	X24	Y24	Z24	X25	Y25	Z25	X26	Y26	Z26	X27	Y27	Z27	X28	Y28	Z28	X29	Y29	Z29	X30	Y30	Z30	X31	Y31	Z31	X32	Y32	Z32	X33	Y33	Z33	X34	Y34	Z34	X35	Y35	Z35	X36	Y36	Z36	X37	Y37	Z37	X38	Y38	Z38	X39	Y39	Z39	X40	Y40	Z40	X41	Y41	Z41	X42	Y42	Z42	X43	Y43	Z43	X44	Y44	Z44	X45	Y45	Z45	X46	Y46	Z46	X47	Y47	Z47	X48	Y48	Z48	X49	Y49	Z49	X50	Y50	Z50	X51	Y51	Z51	X52	Y52	Z52	X53	Y53	Z53	

61	0.6	-1257.134765625	1079.135131835938	236.4700164794922	-1260.447509765625	1069.0556640625	72.05055999755859	-1265.333374023438	1127.744995117188	144.2993621826172	-1053.401489257812	1328.449096679688	146.6642456054688	-1298.91455078125	1269.844116210938	136.7549438476562	-1259.843383789062	1539.505737304688	124.3917617797852	-1097.760864257812	1453.380981445312	138.4111633300781	-1309.259521484375	1401.191650390625	203.1209259033203	-1271.291625976562	1495.8310546875	25.49526405334473	-1165.451293945312	1506.636108398438	-43.68460464477539	-1184.073852539062	1376.86328125	-118.9374694824219	-1167.664306640625	1157.679077148438	-137.4688873291016	-1227.15380859375	1145.067138671875	-50.57661437988281	-1077.378051757812	908.1474609375	-71.45413208007812	-1150.210205078125	891.4420776367188	-117.3498611450195	-1150.8662109375	1042.3212890625	-139.9152679443359	-1042.830688476562	729.2487182617188	-46.73220825195312	-1115.113525390625	802.4440307617188	-113.1521072387695	-1052.651000976562	815.3858642578125	-80.93106842041016	-1191.034057617188	1527.126953125	303.7881469726562	-1206.117431640625	1457.136962890625	374.9805603027344	-1235.43994140625	1188.71240234375	401.4977722167969	-1229.274780273438	1159.790771484375	305.4666137695312	-1100.060546875	931.3209228515625	381.0984191894531	-1166.493286132812	916.0399169921875	443.4111328125	-1221.798706054688	1112.97119140625	419.1382446289062	-1079.226928710938	748.1076049804688	365.5618896484375	-1064.647094726562	823.514892578125	396.9413757324219	-1121.712890625	817.3010864257812	445.3280029296875	-1249.919067382812	1711.73046875	94.81477355957031	-1044.629028320312	1760.1689453125	150.6131591796875	-1078.706176757812	1757.7509765625	58.21700668334961	-1195.859619140625	1713.89404296875	228.1933746337891	-1162.582397460938	964.9541625976562	-37.01549530029297	-1042.8720703125	1000.792297363281	262.2792053222656	-1048.828735351562	1014.6064453125	27.39930152893066	-1113.646118164062	519.5996704101562	21.31101608276367	-1136.51904296875	656.5592651367188	-19.63487815856934	-1211.06201171875	41.97746276855469	18.75773239135742	-1191.308471679688	289.0370788574219	-1.368458986282349	-995.5822143554688	41.69390869140625	97.60323333740234	-1056.71044921875	50.90997695922852	110.8947448730469	-1085.817749023438	42.42490386962891	8.568632125854492	-1283.128662109375	47.48603439331055	66.43159484863281	-1128.468017578125	529.3935546875	285.777099609375	-1116.399169921875	796.8798217773438	335.0673217773438	-1235.00390625	43.67101287841797	261.3175354003906	-1150.728759765625	406.0684509277344	286.6288757324219	-1007.5068359375	60.35848236083984	218.8607025146484	-1069.451416015625	58.6068229675293	187.3560485839844	-1086.608520507812	45.32069778442383	281.3880310058594	-1288.974487304688	44.31315612792969	216.5344696044922	-1143.19921875	965.5198364257812	338.9428100585938	
62	0.61	-1257.1474609375	1079.117553710938	237.0300903320312	-1260.462280273438	1069.156372070312	72.61074829101562	-1265.257568359375	1127.825439453125	144.8814849853516	-1053.247314453125	1328.377807617188	147.1875457763672	-1298.738403320312	1269.991577148438	137.3372497558594	-1259.51513671875	1539.597045898438	125.0598220825195	-1097.490234375	1453.356079101562	138.9843902587891	-1308.989135742188	1401.310180664062	203.7312316894531	-1271.008422851562	1495.978881835938	26.12915992736816	-1165.16259765625	1506.743774414062	-43.06296920776367	-1183.85595703125	1377.043334960938	-118.3636779785156	-1167.560180664062	1157.835815429688	-136.9930725097656	-1226.972900390625	1145.190551757812	-50.08340072631836	-1077.104370117188	908.340087890625	-71.06808471679688	-1150.063232421875	891.6116943359375	-116.9627990722656	-1150.686645507812	1042.475219726562	-139.4523468017578	-1042.688110351562	729.4181518554688	-46.47069549560547	-1114.8642578125	802.600341796875	-112.7694396972656	-1052.588012695312	815.5440063476562	-80.57881164550781	-1190.613647460938	1527.114013671875	304.3925476074219	-1205.753784179688	1457.095703125	375.5950927734375	-1235.332641601562	1188.734008789062	402.0179748535156	-1229.23095703125	1159.797485351562	305.947998046875	-1100.895141601562	930.9403686523438	381.8331909179688	-1167.369873046875	915.881591796875	444.0996704101562	-1221.846557617188	1113.009399414062	419.7113952636719	-1080.781494140625	747.5859375	366.1834716796875	-1065.97021484375	822.872802734375	397.6292724609375	-1122.962768554688	816.953857421875	446.1360168457031	-1249.671630859375	1711.613891601562	95.60977935791016	-1044.406616210938	1760.309692382812	151.1459350585938	-1078.705078125	1757.93115234375	58.80632019042969	-1195.406372070312	1713.775390625	228.9994354248047	-1162.726440429688	965.05615234375	-36.51522445678711	-1042.948608398438	1000.692565917969	262.7559204101562	-1048.8662109375	1014.675354003906	27.8976993560791	-1113.488159179688	519.6827392578125	21.5685920715332	-1136.405517578125	656.6123046875	-19.22669219970703	-1211.073486328125	42.05835723876953	18.80561256408691	-1191.266723632812	289.1359558105469	-1.120540142059326	-995.5662231445312	41.69363784790039	97.59579467773438	-1056.714599609375	50.89081192016602	110.8971710205078	-1085.812866210938	42.4495735168457	8.579685211181641	-1283.118408203125	47.54091262817383	66.48603057861328	-1128.481323242188	529.3394775390625	286.0372924804688	-1116.356689453125	796.8046264648438	335.3874206542969	-1235.025512695312	43.6458854675293	261.3191833496094	-1150.691772460938	406.0061950683594	286.8227844238281	-1007.436218261719	60.24816513061523	218.7923583984375	-1069.423095703125	58.58840560913086	187.3361053466797	-1086.613647460938	45.30774688720703	281.3876342773438	-1289.040405273438	44.32005310058594	216.5071716308594	-1143.234252929688	965.436767578125	339.4006652832031	
63	0.62	-1257.127685546875	1079.0751953125	237.5956573486328	-1260.456787109375	1069.247436523438	73.17642974853516	-1265.214111328125	1127.899291992188	145.4428558349609	-1053.079833984375	1328.309692382812	147.6938323974609	-1298.559448242188	1270.134765625	137.9269714355469	-1259.195922851562	1539.678955078125	125.7129135131836	-1097.229370117188	1453.305786132812	139.5597839355469	-1308.721435546875	1401.426879882812	204.3326721191406	-1270.724365234375	1496.118408203125	26.77387237548828	-1164.882934570312	1506.839111328125	-42.45038604736328	-1183.68896484375	1377.20703125	-117.8161010742188	-1167.456787109375	1157.978393554688	-136.5216827392578	-1226.827270507812	1145.30712890625	-49.61645889282227	-1076.801025390625	908.5260620117188	-70.69954681396484	-1149.962768554688	891.7742309570312	-116.599723815918	-1150.501342773438	1042.61474609375	-138.9874572753906	-1042.636596679688	729.4761962890625	-46.16971588134766	-1114.593627929688	802.732177734375	-112.3754959106445	-1052.529663085938	815.6770629882812	-80.24980163574219	-1190.187377929688	1527.105590820312	304.9925537109375	-1205.380859375	1457.062622070312	376.189697265625	-1235.185791015625	1188.761840820312	402.558837890625	-1229.1904296875	1159.81201171875	306.422119140625	-1101.774658203125	930.6026611328125	382.5798034667969	-1168.237915039062	915.7405395507812	444.7851867675781	-1221.9072265625	1113.056518554688	420.2679443359375	-1082.32080078125	747.0718994140625	366.796875	-1067.261474609375	822.2523803710938	398.3314514160156	-1124.212158203125	816.6307373046875	446.9371948242188	-1249.3818359375	1711.526977539062	96.34898376464844	-1044.126220703125	1760.421264648438	151.6695251464844	-1078.615844726562	1758.078002929688	59.37143707275391	-1194.951293945312	1713.6875	229.7495269775391	-1162.876586914062	965.1612548828125	-36.03597259521484	-1043.006103515625	1000.6005859375	263.1915893554688	-1048.89404296875	1014.755615234375	28.37714576721191	-1113.3486328125	519.7680053710938	21.78073692321777	-1136.264770507812	656.663330078125	-18.83559608459473	-1211.079833984375	42.1323356628418	18.85122680664062	-1191.22998046875	289.2318420410156	-0.8953940868377686	-995.5504760742188	41.69345092773438	97.58556365966797	-1056.718994140625	50.87158966064453	110.8939514160156	-1085.813110351562	42.47426605224609	8.581461906433105	-1283.111450195312	47.59895706176758	66.53505706787109	-1128.447143554688	529.2817993164062	286.2725524902344	-1116.2822265625	796.72412109375	335.6838989257812	-1235.030395507812	43.64298248291016	261.3006896972656	-1150.628540039062	405.9331359863281	286.9736328125	-1007.278625488281	59.91418838500977	218.6707763671875	-1069.325439453125	58.48260498046875	187.2963562011719	-1086.600341796875	45.2839469909668	281.3670654296875	-1289.080322265625	44.34437942504883	216.4688568115234	-1143.25244140625	965.3309326171875	339.839111328125	
64	0.63	-1257.07763671875	1079.011352539062	238.1602172851562	-1260.428344726562	1069.330078125	73.74517059326172	-1265.204956054688	1127.9658203125	145.9785461425781	-1052.891723632812	1328.245971679688	148.1822967529297	-1298.390625	1270.269775390625	138.5144958496094	-1258.875366210938	1539.755615234375	126.3552169799805	-1096.968505859375	1453.238403320312	140.1366271972656	-1308.453125	1401.540161132812	204.9308929443359	-1270.44189453125	1496.2509765625	27.42908477783203	-1164.61376953125	1506.9248046875	-41.84805297851562	-1183.571411132812	1377.349731445312	-117.2926940917969	-1167.354736328125	1158.106811523438	-136.0576934814453	-1226.722290039062	1145.416137695312	-49.17652130126953	-1076.486083984375	908.6998291015625	-70.34621429443359	-1149.902099609375	891.9246826171875	-116.2570953369141	-1150.329833984375	1042.7421875	-138.5310668945312	-1042.647583007812	729.4470825195312	-45.82973098754883	-1114.308349609375	802.835693359375	-111.9708404541016	-1052.469482421875	815.7831420898438	-79.93233489990234	-1189.76220703125	1527.099609375	305.5948181152344	-1204.997802734375	1457.036376953125	376.7661437988281	-1235.001586914062	1188.7939453125	403.122802734375	-1229.141845703125	1159.832153320312	306.9034729003906	-1102.686401367188	930.2994384765625	383.3346557617188	-1169.08544921875	915.6156616210938	445.469482421875	-1221.989379882812	1113.111206054688	420.8033752441406	-1083.85595703125	746.5770874023438	367.3912963867188	-1068.525146484375	821.6517944335938	399.04833984375	-1125.456909179688	816.3313598632812	447.7184448242188	-1249.053955078125	1711.468994140625	97.03422546386719	-1043.79150390625	1760.500244140625	152.1876373291016	-1078.424072265625	1758.182861328125	59.91304779052734	-1194.50537109375	1713.635864257812	230.4356384277344	-1163.030151367188	965.2705688476562	-35.58269500732422	-1043.032836914062	1000.517395019531	263.5807495117188	-1048.913208007812	1014.843811035156	28.82898139953613	-1113.22900390625	519.8558959960938	21.95141983032227	-1136.123046875	656.7168579101562	-18.47196197509766	-1211.08203125	42.20015335083008	18.89583206176758	-1191.202392578125	289.3238220214844	-0.6886158585548401	-995.5333251953125	41.69309616088867	97.57349395751953	-1056.715087890625	50.85765838623047	110.8859481811523	-1085.818969726562	42.49969100952148	8.574134826660156	-1283.106567382812	47.65824508666992	66.58060455322266	-1128.37451171875	529.21728515625	286.4817810058594	-1116.176025390625	796.6406860351562	335.9565734863281	-1235.018310546875	43.66123199462891	261.2628479003906	-1150.552490234375	405.8522644042969	287.0872802734375	-1007.024658203125	59.35463333129883	218.4918823242188	-1069.161499023438	58.28300476074219	187.2352294921875	-1086.56689453125	45.25210189819336	281.3249816894531	-1289.083374023438	44.37688064575195	216.427978515625	-1143.238037109375	965.2006225585938	340.2521667480469	
